<?xml version="1.0" standalone="no"?>
<!DOCTYPE svg PUBLIC "-//W3C//DTD SVG 20010904//EN"
 "http://www.w3.org/TR/2001/REC-SVG-20010904/DTD/svg10.dtd">
<svg version="1.0" xmlns="http://www.w3.org/2000/svg"
 width="1268.000000pt" height="166.000000pt" viewBox="0 0 1268.000000 166.000000"
 preserveAspectRatio="xMidYMid meet">

<g transform="translate(0.000000,166.000000) scale(0.100000,-0.100000)"
fill="#000000" stroke="none">
<path d="M0 830 l0 -830 6340 0 6340 0 0 830 0 830 -6340 0 -6340 0 0 -830z
m1946 703 c49 -26 97 -74 121 -122 17 -33 18 -77 18 -586 0 -611 4 -576 -69
-648 -59 -60 -98 -72 -221 -72 -88 0 -117 4 -145 19 -49 26 -98 74 -123 121
-22 39 -22 49 -25 559 -3 601 -4 595 77 676 64 64 116 81 236 77 68 -3 100 -9
131 -24z m8260 12 c64 -19 118 -65 152 -129 l27 -51 3 -504 c2 -344 -1 -521
-8 -558 -14 -66 -59 -127 -124 -167 -42 -27 -59 -31 -141 -34 -151 -7 -237 35
-289 140 l-26 52 0 537 0 537 28 53 c29 57 95 110 156 128 49 14 168 12 222
-4z m-9611 -125 l0 -115 -127 -3 -128 -3 0 -144 0 -144 113 -3 112 -3 0 -115
0 -115 -112 -3 -113 -3 -2 -327 -3 -327 -115 0 -115 0 -3 700 c-1 385 0 706 3
713 3 10 58 12 247 10 l243 -3 0 -115z m613 86 c28 -16 64 -44 78 -63 51 -67
54 -86 54 -330 0 -200 -3 -233 -19 -269 -18 -39 -85 -114 -103 -114 -16 0 -6
-39 82 -319 49 -157 87 -288 84 -293 -8 -12 -218 -10 -231 3 -6 6 -44 122 -84
257 l-74 247 -5 -255 -5 -255 -109 -3 c-81 -2 -112 1 -118 10 -4 7 -8 324 -8
704 0 539 3 693 13 703 9 9 59 12 202 9 188 -3 190 -3 243 -32z m1238 24 c6
-6 57 -156 115 -334 l104 -323 5 331 5 331 115 0 115 0 0 -710 0 -710 -86 -3
c-61 -2 -89 1 -96 10 -6 7 -48 128 -93 268 -44 140 -93 291 -108 335 l-27 80
-5 -345 -5 -345 -110 0 -110 0 -3 700 c-1 385 0 706 3 713 6 15 166 17 181 2z
m1184 -9 c13 -25 13 -177 0 -202 -9 -16 -22 -19 -90 -19 l-80 0 -2 -592 -3
-593 -104 -3 c-67 -2 -108 1 -117 9 -12 10 -14 108 -14 595 l0 583 -82 3 -83
3 -3 104 c-1 58 0 111 2 118 4 10 63 13 285 13 267 0 281 -1 291 -19z m644 3
c8 -20 8 -188 0 -208 -5 -13 -26 -16 -130 -16 l-124 0 0 -145 0 -145 103 0
c67 0 107 -4 115 -12 13 -13 17 -183 6 -212 -5 -13 -25 -16 -115 -16 l-109 0
0 -210 0 -210 124 0 c104 0 125 -3 130 -16 9 -23 7 -197 -2 -212 -7 -9 -63
-12 -248 -10 l-239 3 -3 700 c-1 385 0 706 3 713 3 9 61 12 244 12 209 0 240
-2 245 -16z m358 -1 c8 -10 59 -157 114 -327 l99 -309 5 316 c3 208 9 320 16
327 7 7 50 10 115 8 l104 -3 0 -710 0 -710 -80 -3 c-44 -1 -86 2 -93 6 -7 5
-62 161 -122 348 l-109 339 -3 -345 -3 -345 -115 0 -115 0 -3 700 c-1 385 0
706 3 713 3 8 30 12 88 12 68 0 87 -3 99 -17z m1088 -7 c49 -26 98 -74 123
-121 22 -40 22 -46 22 -570 0 -524 0 -530 -22 -570 -25 -47 -74 -95 -123 -121
-31 -17 -59 -19 -235 -19 l-200 0 -3 700 c-1 385 0 706 3 713 4 11 45 13 202
10 170 -3 203 -6 233 -22z m1024 0 c52 -26 104 -79 127 -130 17 -38 19 -75 19
-561 0 -581 2 -563 -72 -637 -69 -68 -90 -73 -313 -73 l-200 0 -3 700 c-1 385
0 706 3 713 4 10 47 13 202 10 172 -3 203 -6 237 -22z m810 8 c11 -29 7 -199
-6 -212 -8 -8 -53 -12 -135 -12 l-123 0 0 -145 0 -145 110 0 c131 0 130 1 130
-120 0 -121 1 -120 -130 -120 l-110 0 0 -210 0 -210 123 0 c82 0 127 -4 135
-12 14 -14 17 -195 4 -216 -7 -9 -63 -12 -248 -10 l-239 3 -3 700 c-1 385 0
706 3 713 3 9 61 12 244 12 209 0 240 -2 245 -16z m376 -6 c5 -13 25 -198 45
-413 36 -385 45 -470 51 -450 2 6 22 199 44 430 22 231 43 428 46 438 5 15 20
17 134 17 71 0 131 -4 134 -8 6 -10 -231 -1368 -244 -1400 -9 -21 -15 -22
-119 -22 -89 0 -110 3 -115 16 -12 32 -246 1389 -242 1401 4 10 37 13 131 13
121 0 126 -1 135 -22z m1065 -98 l0 -115 -127 -3 -128 -3 0 -144 0 -144 113
-3 112 -3 0 -115 0 -115 -112 -3 -113 -3 0 -209 0 -209 128 -3 127 -3 0 -115
0 -115 -245 0 -245 0 -3 700 c-1 385 0 706 3 713 3 10 58 12 247 10 l243 -3 0
-115z m423 -477 l2 -592 138 -3 137 -3 0 -115 0 -115 -249 -3 c-193 -2 -251 1
-258 10 -9 15 -11 1378 -2 1402 5 14 23 16 118 14 l111 -3 3 -592z m1578 570
c53 -28 107 -89 128 -144 15 -38 17 -77 14 -269 -3 -197 -5 -230 -22 -263 -46
-93 -138 -147 -253 -147 l-73 0 -2 -287 -3 -288 -115 0 -115 0 -3 700 c-1 385
0 706 3 713 4 11 45 13 202 10 181 -3 202 -5 239 -25z m769 -93 l0 -115 -127
-3 -128 -3 0 -144 0 -144 113 -3 112 -3 0 -115 0 -115 -112 -3 -113 -3 0 -209
0 -209 128 -3 127 -3 0 -115 0 -115 -235 -3 c-212 -2 -236 -1 -247 15 -17 22
-19 1363 -3 1394 10 18 22 19 248 17 l237 -3 0 -115z m591 105 c63 -19 126
-72 156 -133 21 -44 23 -61 26 -254 4 -248 -4 -293 -71 -362 -23 -24 -49 -45
-57 -48 -11 -4 4 -63 78 -302 51 -163 90 -301 87 -306 -3 -6 -55 -10 -115 -10
-94 0 -111 2 -119 18 -5 9 -30 87 -56 172 -25 85 -58 193 -73 240 l-27 85 -5
-255 -5 -255 -110 0 -110 0 -3 700 c-1 385 0 706 3 713 7 19 335 17 401 -3z"/>
<path d="M1756 1324 c-14 -14 -16 -72 -16 -490 0 -309 4 -482 10 -495 12 -22
68 -27 88 -7 17 17 17 979 0 996 -17 17 -64 15 -82 -4z"/>
<path d="M10046 1318 c-14 -20 -16 -83 -16 -488 0 -513 0 -510 60 -510 62 0
60 -16 60 509 0 450 -1 479 -18 494 -26 24 -68 21 -86 -5z"/>
<path d="M990 1115 l0 -205 44 0 c71 0 76 14 76 205 0 191 -5 205 -76 205
l-44 0 0 -205z"/>
<path d="M5520 825 l0 -495 45 0 c34 0 47 5 55 19 6 13 10 181 10 476 0 295
-4 463 -10 476 -8 14 -21 19 -55 19 l-45 0 0 -495z"/>
<path d="M6540 825 l0 -495 43 0 c24 0 48 5 55 12 17 17 17 949 0 966 -7 7
-31 12 -55 12 l-43 0 0 -495z"/>
<path d="M10790 1115 l0 -205 43 0 c24 0 48 5 55 12 17 17 17 369 0 386 -7 7
-31 12 -55 12 l-43 0 0 -205z"/>
<path d="M12180 1115 l0 -205 43 0 c73 0 77 9 77 207 0 194 -3 203 -78 203
l-42 0 0 -205z"/>
</g>
</svg>
